<svg width="447" height="184" viewBox="0 0 447 184" fill="none" xmlns="http://www.w3.org/2000/svg">
<path d="M82.9766 46V11.0909H107.522V18.7273H92.4538V24.7273H106.022V32.3636H92.4538V46H82.9766ZM120.485 11.0909V46H111.008V11.0909H120.485ZM134.045 46H123.817L135.34 11.0909H148.295L159.817 46H149.59L141.954 20.7045H141.681L134.045 46ZM132.136 32.2273H151.363V39.3182H132.136V32.2273ZM172.742 11.0909H184.538L192.651 30.8636H193.06L201.174 11.0909H212.969V46H203.697V25.8182H203.424L195.651 45.7273H190.06L182.288 25.6818H182.015V46H172.742V11.0909ZM217.461 46V11.0909H242.62V18.7273H226.938V24.7273H241.325V32.3636H226.938V38.3636H242.552V46H217.461ZM260.752 46H247.32V11.0909H260.616C264.207 11.0909 267.309 11.7898 269.923 13.1875C272.548 14.5739 274.57 16.5739 275.991 19.1875C277.423 21.7898 278.138 24.9091 278.138 28.5455C278.138 32.1818 277.428 35.3068 276.008 37.9205C274.587 40.5227 272.576 42.5227 269.974 43.9205C267.371 45.3068 264.298 46 260.752 46ZM256.798 37.9545H260.411C262.138 37.9545 263.61 37.6761 264.826 37.1193C266.053 36.5625 266.985 35.6023 267.621 34.2386C268.269 32.875 268.593 30.9773 268.593 28.5455C268.593 26.1136 268.263 24.2159 267.604 22.8523C266.957 21.4886 266.002 20.5284 264.741 19.9716C263.491 19.4148 261.957 19.1364 260.138 19.1364H256.798V37.9545Z" fill="white"/>
<path d="M82.3281 118V48.1818H101.283V76.4091H102.237L123.237 48.1818H145.328L121.737 79.2727L145.874 118H123.237L107.555 91.8182L101.283 100V118H82.3281ZM211.362 48.1818V118H195.544L170.317 81.3182H169.908V118H150.953V48.1818H167.044L191.862 84.7273H192.408V48.1818H211.362ZM261.646 48.1818H280.601V92.9091C280.601 98.2273 279.328 102.83 276.783 106.716C274.26 110.58 270.737 113.568 266.214 115.682C261.692 117.773 256.442 118.818 250.464 118.818C244.442 118.818 239.169 117.773 234.646 115.682C230.124 113.568 226.601 110.58 224.078 106.716C221.578 102.83 220.328 98.2273 220.328 92.9091V48.1818H239.283V91.2727C239.283 93.4318 239.76 95.3636 240.714 97.0682C241.669 98.75 242.987 100.068 244.669 101.023C246.374 101.977 248.305 102.455 250.464 102.455C252.646 102.455 254.578 101.977 256.26 101.023C257.942 100.068 259.26 98.75 260.214 97.0682C261.169 95.3636 261.646 93.4318 261.646 91.2727V48.1818ZM289.609 118V48.1818H338.7V63.4545H308.564V75.4545H335.7V90.7273H308.564V118H289.609Z" fill="white"/>
<path d="M334.323 120.82L383.692 71.4514L418.404 106.164L407.605 116.963L386.295 95.6537L377.81 104.139L396.998 123.327L386.199 134.127L367.01 114.938L347.726 134.223L334.323 120.82Z" fill="white"/>
<path d="M271 11H329C334.523 11 339 15.4772 339 21V46H271L273.481 43.8861C282.486 36.215 282.902 22.4472 274.376 14.247L271 11Z" fill="#8D8D8D"/>
</svg>
